<?xml version="1.0" encoding="UTF-8"?>
<svg width="84px" height="86px" viewBox="0 0 84 86" version="1.1" xmlns="http://www.w3.org/2000/svg" xmlns:xlink="http://www.w3.org/1999/xlink">
    <!-- Generator: sketchtool 56.1 (101010) - https://sketch.com -->
    <title>99B8A3C3-826F-4840-9B38-A1795EAA394B</title>
    <desc>Created with sketchtool.</desc>
    <g id="Home-Page" stroke="none" stroke-width="1" fill="none" fill-rule="evenodd">
        <g transform="translate(-1141.000000, -6817.000000)" id="Sticky-Installez">
            <g transform="translate(0.000000, 6787.000000)">
                <g id="Confetti" transform="translate(1141.000000, 30.000000)">
                    <path d="M67.84,13.1388889 C66.96,13.1388889 61.36,22.7740741 61.68,23.0925926 C62.08,23.4111111 62.24,24.0481481 62.88,23.7296296 C63.04,23.65 71.84,15.6074074 70.32,14.2537037 C69.76,13.7759259 68.48,13.1388889 67.84,13.1388889" id="Fill-547" fill="#E2574C"/>
                    <path d="M27.52,0.477777778 C28.96,1.3537037 29.2,9.23703704 28.88,9.71481481 C28.64,10.112963 28.32,9.9537037 27.84,9.87407407 C27.84,9.87407407 24.48,1.03518519 24.72,0.716666667 C25.44,-0.477777778 27.04,0.238888889 27.52,0.477777778" id="Fill-549" fill="#2DD7FF"/>
                    <path d="M75.52,58.8462963 C76.4,57.8111111 82.64,59.0851852 83.2,59.562963 C83.76,60.0407407 83.52,61.7925926 83.2,62.1111111 C82.32,63.0666667 75.68,59.3240741 75.6,59.2444444 C75.52,59.1648148 75.52,59.1648148 75.52,59.0851852 C75.44,59.0055556 75.44,58.9259259 75.52,58.8462963" id="Fill-551" fill="#2DD7FF"/>
                    <path d="M2.32,16.0851852 C3.28,16.8814815 7.68,21.2611111 7.12,21.8981481 C6.88,22.137037 7.12,22.3759259 6.56,22.3759259 C2.72,20.1462963 0.16,18.0759259 0.16,17.5981481 C0.16,17.1203704 0.96,14.8907407 2.32,16.0851852" id="Fill-553" fill="#E2574C"/>
                    <path d="M72.56,83.6111111 C72.64,84.2481481 71.12,85.6018519 69.92,85.8407407 C69.28,86 62.96,77.1611111 63.92,76.762963 C64.16,76.6037037 64.16,75.887037 64.8,76.2851852 C67.12,77.5592593 72.56,83.3722222 72.56,83.6111111" id="Fill-555" fill="#E2574C"/>
                    <path d="M80.48,37.5851852 C80.96,37.9833333 80.4,40.1333333 80.24,40.2925926 C80.16,40.4518519 73.2,40.7703704 72.16,39.8944444 C72,39.7351852 72,39.5759259 72.16,39.337037 C72.4,39.1777778 79.36,36.6296296 80.48,37.5851852" id="Fill-561" fill="#2DD7FF"/>
                    <path d="M43.76,2.70740741 C44.24,2.15 46.24,3.10555556 46.48,3.34444444 C46.48,3.34444444 46.56,3.42407407 46.56,3.42407407 C46.64,3.58333333 45.6,9.9537037 44.56,11.1481481 C44.4,11.387037 44.16,11.387037 44,11.2277778 C43.52,10.9092593 42.8,3.74259259 43.76,2.70740741" id="Fill-563" fill="#2DD7FF"/>
                    <path d="M13.68,8.91851852 C13.92,9.55555556 13.84,10.1925926 13.28,10.3518519 C12.72,10.5111111 11.44,9.63518519 11.12,8.75925926 C10.96,8.20185185 11.12,7.64444444 12.16,7.32592593 C12.64,7.2462963 13.36,8.12222222 13.68,8.91851852" id="Fill-565" fill="#2DD7FF"/>
                    <path d="M71.76,27.2333333 C72.24,28.3481481 71.44,29.9407407 70.24,28.9851852 C68.08,27.2333333 71.04,25.6407407 71.76,27.2333333" id="Fill-567" fill="#2DD7FF"/>
                    <path d="M54.96,14.8111111 C55.44,15.9259259 54.64,17.5185185 53.44,16.562963 C51.28,14.8111111 54.32,13.2185185 54.96,14.8111111" id="Fill-569" fill="#2DD7FF"/>
                    <path d="M73.52,48.7333333 C73.84,49.5296296 73.28,50.8037037 72.32,50.0074074 C70.8,48.6537037 73.04,47.4592593 73.52,48.7333333" id="Fill-571" fill="#E2574C"/>
                    <path d="M52.32,23.4111111 C52.64,24.2074074 52.08,25.4814815 51.12,24.6851852 C49.6,23.4111111 51.84,22.2166667 52.32,23.4111111" id="Fill-573" fill="#E2574C"/>
                    <path d="M76.72,70.95 C77.2,72.0648148 76.4,73.6574074 75.2,72.7018519 C73.12,70.95 76.08,69.3574074 76.72,70.95" id="Fill-575" fill="#2DD7FF"/>
                    <path d="M58.64,72.8611111 C59.12,73.9759259 58.32,75.5685185 57.12,74.612963 C55.04,72.8611111 58,71.2685185 58.64,72.8611111" id="Fill-577" fill="#E2574C"/>
                    <path d="M67.68,62.1907407 C68,62.987037 67.44,64.2611111 66.48,63.4648148 C64.88,62.1907407 67.12,60.9962963 67.68,62.1907407" id="Fill-579" fill="#2DD7FF"/>
                    <path d="M15.84,22.137037 C16.16,22.9333333 15.6,24.2074074 14.64,23.4111111 C13.12,22.0574074 15.36,20.862963 15.84,22.137037" id="Fill-581" fill="#E2574C"/>
                    <path d="M33.28,14.1740741 C33.6,14.9703704 33.04,16.2444444 32.08,15.4481481 C30.56,14.1740741 32.8,12.9796296 33.28,14.1740741" id="Fill-583" fill="#E2574C"/>
                    <path d="M61.12,24.2074074 C61.6,25.3222222 60.8,26.9148148 59.6,25.9592593 C57.44,24.1277778 60.4,22.6148148 61.12,24.2074074" id="Fill-585" fill="#E2574C"/>
                    <path d="M40.72,25.2425926 C40.08,25.2425926 39.44,25.4018519 38.8,25.8796296 C38.88,25.162963 38.8,24.6055556 38.56,24.0481481 C39.2,24.0481481 39.76,23.8888889 40.32,23.4907407 C40.32,23.8092593 40.32,24.2074074 40.4,24.5259259 C40.48,24.8444444 40.56,25.0833333 40.72,25.2425926 M37.12,28.6666667 L37.12,28.6666667 C37.36,28.8259259 37.6,28.7462963 37.76,28.5074074 C39.44,25.6407407 40.88,25.8796296 42.16,26.6759259 C42.4,26.8351852 42.64,26.7555556 42.8,26.5166667 C42.96,26.2777778 42.88,26.0388889 42.64,25.8796296 C41.92,25.4814815 41.44,25.0037037 41.28,24.3666667 C40.96,23.3314815 41.68,22.137037 42,21.5796296 C42.16,21.3407407 42.08,21.1018519 41.84,20.9425926 C41.84,20.9425926 41.84,20.9425926 41.84,20.9425926 C41.6,20.7833333 41.36,20.862963 41.2,21.1018519 C40,23.0925926 38.8,23.65 37.28,22.7740741 C37.04,22.6148148 36.8,22.6944444 36.64,22.9333333 C36.48,23.1722222 36.56,23.4111111 36.8,23.5703704 C37.76,24.1277778 38.56,25.3222222 36.96,28.1092593 C36.88,28.2685185 36.96,28.5074074 37.12,28.6666667" id="Fill-587" fill="#2DD7FF"/>
                    <path d="M60.48,6.29074074 C59.92,5.97222222 59.28,5.89259259 58.56,6.05185185 C58.96,5.49444444 59.2,4.93703704 59.2,4.37962963 C59.68,4.69814815 60.32,4.77777778 60.96,4.69814815 C60.8,5.01666667 60.64,5.33518519 60.56,5.6537037 C60.48,5.81296296 60.4,6.05185185 60.48,6.29074074 M55.84,7.72407407 C55.84,7.72407407 55.84,7.72407407 55.84,7.72407407 C56,7.96296296 56.24,7.96296296 56.4,7.88333333 C59.2,6.05185185 60.24,6.92777778 60.96,8.12222222 C61.12,8.36111111 61.36,8.36111111 61.52,8.28148148 C61.76,8.12222222 61.76,7.88333333 61.68,7.64444444 C61.28,7.00740741 61.12,6.37037037 61.28,5.81296296 C61.52,4.77777778 62.72,4.06111111 63.28,3.66296296 C63.52,3.5037037 63.52,3.26481481 63.44,3.02592593 C63.44,3.02592593 63.44,3.02592593 63.44,3.02592593 C63.28,2.78703704 63.04,2.78703704 62.88,2.86666667 L62.88,2.86666667 C60.88,4.14074074 59.6,4.06111111 58.72,2.62777778 C58.56,2.38888889 58.32,2.38888889 58.16,2.46851852 C57.92,2.62777778 57.92,2.86666667 58,3.10555556 C58.56,3.98148148 58.64,5.41481481 56,7.08703704 C55.76,7.32592593 55.76,7.56481481 55.84,7.72407407" id="Fill-589" fill="#E2574C"/>
                    <path d="M79.92,29.3037037 C79.36,28.9851852 78.72,28.9055556 78,29.0648148 C78.4,28.5074074 78.64,27.95 78.64,27.3925926 C79.12,27.7111111 79.76,27.7907407 80.4,27.7111111 C80.24,28.0296296 80.08,28.3481481 80,28.6666667 C79.92,28.8259259 79.92,29.0648148 79.92,29.3037037 M75.36,30.737037 C75.36,30.737037 75.36,30.737037 75.36,30.737037 C75.52,30.9759259 75.76,30.9759259 75.92,30.8962963 C78.72,29.0648148 79.76,29.9407407 80.48,31.1351852 C80.64,31.3740741 80.88,31.3740741 81.04,31.2944444 C81.28,31.1351852 81.28,30.8962963 81.2,30.6574074 C80.8,30.0203704 80.64,29.3833333 80.8,28.8259259 C81.04,27.7907407 82.24,27.0740741 82.8,26.6759259 C83.04,26.5166667 83.04,26.2777778 82.96,26.0388889 C82.96,26.0388889 82.96,26.0388889 82.96,26.0388889 C82.8,25.8 82.56,25.8 82.4,25.8796296 C80.4,27.1537037 79.12,27.0740741 78.24,25.6407407 C78.08,25.4018519 77.84,25.4018519 77.68,25.4814815 C77.44,25.6407407 77.44,25.8796296 77.52,26.1185185 C78.08,26.9944444 78.16,28.4277778 75.52,30.1 C75.28,30.2592593 75.2,30.4981481 75.36,30.737037" id="Fill-591" fill="#2DD7FF"/>
                    <path d="M66.8,47.4592593 C66.32,46.9814815 65.76,46.7425926 64.96,46.662963 C65.52,46.1851852 65.92,45.7074074 66.08,45.15 C66.48,45.6277778 67.04,45.8666667 67.68,45.9462963 C67.44,46.1851852 67.2,46.4240741 66.96,46.8222222 C66.96,46.9814815 66.8,47.2203704 66.8,47.4592593 M61.84,47.6185185 C61.84,47.6185185 61.84,47.6185185 61.84,47.6185185 C61.92,47.8574074 62.16,48.0166667 62.4,47.937037 C65.68,46.9814815 66.48,48.0962963 66.8,49.5296296 C66.88,49.7685185 67.12,49.9277778 67.36,49.8481481 C67.6,49.7685185 67.76,49.5296296 67.68,49.2907407 C67.44,48.4944444 67.52,47.8574074 67.84,47.3 C68.4,46.3444444 69.76,45.9462963 70.4,45.7074074 C70.64,45.6277778 70.8,45.3888889 70.72,45.15 L70.72,45.15 C70.64,44.9111111 70.4,44.7518519 70.16,44.8314815 L70.16,44.8314815 C67.84,45.5481481 66.64,45.0703704 66.16,43.3981481 C66.08,43.1592593 65.84,43 65.6,43.0796296 C65.36,43.1592593 65.2,43.3981481 65.28,43.637037 C65.6,44.6722222 65.28,46.1055556 62.16,47.0611111 C61.92,47.1407407 61.76,47.3796296 61.84,47.6185185" id="Fill-593" fill="#E2574C"/>
                </g>
            </g>
        </g>
    </g>
</svg>