<svg xmlns="http://www.w3.org/2000/svg" width="60" height="60" viewBox="0 0 60 60" fill="none"><path d="M23.9385 25.5463L21.3668 20.934C21.221 20.6738 21.3109 20.3462 21.556 20.1952C21.8011 20.0442 22.1237 20.131 22.2633 20.3911L24.8691 25.0645C26.8576 24.1234 29.0943 23.5999 31.5016 23.5999C33.9088 23.5999 36.1455 24.1234 38.134 25.0645L40.7398 20.3911C40.8856 20.131 41.202 20.0442 41.4533 20.1952C41.7046 20.3462 41.7884 20.6738 41.6425 20.934L39.0708 25.5463C43.5008 28.0324 46.5037 32.6801 47 38.1211H16C16.4963 32.6801 19.4992 28.0324 23.9385 25.5463ZM38.6179 33.6147C39.3376 33.6147 39.9177 33.0109 39.9177 32.2689C39.9177 31.5238 39.3345 30.9231 38.6179 30.9231C37.8982 30.9231 37.3181 31.527 37.3181 32.2689C37.315 33.0077 37.8982 33.6147 38.6179 33.6147ZM24.3852 33.6147C25.1049 33.6147 25.685 33.0109 25.685 32.2689C25.685 31.5238 25.1018 30.9231 24.3852 30.9231C23.6655 30.9231 23.0854 31.527 23.0854 32.2689C23.0823 33.0077 23.6686 33.6147 24.3852 33.6147Z" fill="white"></path></svg>