<svg xmlns="http://www.w3.org/2000/svg" width="60" height="60" viewBox="0 0 60 60" fill="none">
<path fill-rule="evenodd" clip-rule="evenodd" d="M26.9623 20.327C26.9623 20.327 26.5589 18.5495 28.137 16.4705C29.9101 14.1344 32.3748 14.1211 32.3748 14.1211C32.3748 14.1211 32.7427 16.3198 30.9784 18.4342C29.0989 20.6994 26.9623 20.327 26.9623 20.327ZM34.3607 28.4258C34.3607 24.8042 37.2775 23.3147 37.2775 23.3147C37.2775 23.3147 35.7836 20.6152 31.9936 20.6152C29.7905 20.6152 28.0971 21.8696 27.184 21.8696C26.1201 21.8696 24.5376 20.6905 22.4896 20.6905C19.3512 20.6905 16 23.5053 16 28.869C16 34.3214 19.9585 41.108 23.0925 41.108C24.1874 41.108 25.8674 40.0042 27.5608 40.0042C29.2231 40.0042 30.4465 41.0681 32.0246 41.0681C35.4556 41.0681 38 33.9136 38 33.9136C38 33.9136 34.3607 32.5084 34.3607 28.4258Z" fill="white"></path></svg>