<?xml version="1.0" standalone="no"?>
<svg xmlns="http://www.w3.org/2000/svg" width="500" height="500"><defs><clipPath id="clip-path-dot-color"><path d="M 18 210v 16h 8a 8 8, 0, 0, 0, 0 -16" transform="rotate(180,26,218)"/><path d="M 18 242v 16h 16v -8a 8 8, 0, 0, 0, -8 -8" transform="rotate(-90,26,250)"/><rect x="18" y="258" width="16" height="16" transform="rotate(0,26,266)"/><rect x="18" y="274" width="16" height="16" transform="rotate(0,26,282)"/><rect x="18" y="290" width="16" height="16" transform="rotate(0,26,298)"/><rect x="18" y="306" width="16" height="16" transform="rotate(0,26,314)"/><path d="M 18 322v 16h 8a 8 8, 0, 0, 0, 0 -16" transform="rotate(90,26,330)"/><path d="M 34 146v 16h 8a 8 8, 0, 0, 0, 0 -16" transform="rotate(-90,42,154)"/><rect x="34" y="162" width="16" height="16" transform="rotate(0,42,170)"/><rect x="34" y="178" width="16" height="16" transform="rotate(0,42,186)"/><rect x="34" y="194" width="16" height="16" transform="rotate(0,42,202)"/><rect x="34" y="210" width="16" height="16" transform="rotate(0,42,218)"/><path d="M 34 242v 16h 8a 8 8, 0, 0, 0, 0 -16" transform="rotate(0,42,250)"/><path d="M 34 290v 16h 16v -8a 8 8, 0, 0, 0, -8 -8" transform="rotate(0,42,298)"/><path d="M 34 306v 16h 16v -8a 8 8, 0, 0, 0, -8 -8" transform="rotate(90,42,314)"/><path d="M 34 338v 16h 8a 8 8, 0, 0, 0, 0 -16" transform="rotate(180,42,346)"/><path d="M 50 162v 16h 16v -8a 8 8, 0, 0, 0, -8 -8" transform="rotate(0,58,170)"/><path d="M 50 178v 16h 16v -8a 8 8, 0, 0, 0, -8 -8" transform="rotate(90,58,186)"/><rect x="50" y="210" width="16" height="16" transform="rotate(0,58,218)"/><circle cx="58" cy="266" r="8" transform="rotate(0,58,266)"/><path d="M 50 338v 16h 8a 8 8, 0, 0, 0, 0 -16" transform="rotate(0,58,346)"/><path d="M 66 146v 16h 8a 8 8, 0, 0, 0, 0 -16" transform="rotate(180,74,154)"/><path d="M 66 194v 16h 16v -8a 8 8, 0, 0, 0, -8 -8" transform="rotate(-90,74,202)"/><path d="M 66 210v 16h 16v -8a 8 8, 0, 0, 0, -8 -8" transform="rotate(90,74,218)"/><path d="M 66 242v 16h 8a 8 8, 0, 0, 0, 0 -16" transform="rotate(180,74,250)"/><path d="M 66 290v 16h 8a 8 8, 0, 0, 0, 0 -16" transform="rotate(180,74,298)"/><path d="M 66 322v 16h 8a 8 8, 0, 0, 0, 0 -16" transform="rotate(180,74,330)"/><path d="M 82 146v 16h 16v -8a 8 8, 0, 0, 0, -8 -8" transform="rotate(0,90,154)"/><rect x="82" y="162" width="16" height="16" transform="rotate(0,90,170)"/><rect x="82" y="178" width="16" height="16" transform="rotate(0,90,186)"/><rect x="82" y="194" width="16" height="16" transform="rotate(0,90,202)"/><path d="M 82 242v 16h 16v -8a 8 8, 0, 0, 0, -8 -8" transform="rotate(0,90,250)"/><path d="M 82 258v 16h 8a 8 8, 0, 0, 0, 0 -16" transform="rotate(90,90,266)"/><rect x="82" y="290" width="16" height="16" transform="rotate(0,90,298)"/><path d="M 82 322v 16h 8a 8 8, 0, 0, 0, 0 -16" transform="rotate(0,90,330)"/><rect x="98" y="178" width="16" height="16" transform="rotate(0,106,186)"/><path d="M 98 194v 16h 16v -8a 8 8, 0, 0, 0, -8 -8" transform="rotate(90,106,202)"/><circle cx="106" cy="234" r="8" transform="rotate(0,106,234)"/><path d="M 98 274v 16h 16v -8a 8 8, 0, 0, 0, -8 -8" transform="rotate(-90,106,282)"/><rect x="98" y="290" width="16" height="16" transform="rotate(0,106,298)"/><path d="M 98 306v 16h 16v -8a 8 8, 0, 0, 0, -8 -8" transform="rotate(180,106,314)"/><path d="M 98 338v 16h 8a 8 8, 0, 0, 0, 0 -16" transform="rotate(180,106,346)"/><path d="M 114 146v 16h 8a 8 8, 0, 0, 0, 0 -16" transform="rotate(180,122,154)"/><rect x="114" y="178" width="16" height="16" transform="rotate(0,122,186)"/><circle cx="122" cy="218" r="8" transform="rotate(0,122,218)"/><circle cx="122" cy="250" r="8" transform="rotate(0,122,250)"/><rect x="114" y="274" width="16" height="16" transform="rotate(0,122,282)"/><path d="M 114 306v 16h 8a 8 8, 0, 0, 0, 0 -16" transform="rotate(0,122,314)"/><rect x="114" y="338" width="16" height="16" transform="rotate(0,122,346)"/><rect x="130" y="146" width="16" height="16" transform="rotate(0,138,154)"/><path d="M 130 178v 16h 16v -8a 8 8, 0, 0, 0, -8 -8" transform="rotate(0,138,186)"/><path d="M 130 194v 16h 8a 8 8, 0, 0, 0, 0 -16" transform="rotate(90,138,202)"/><path d="M 130 258v 16h 16v -8a 8 8, 0, 0, 0, -8 -8" transform="rotate(-90,138,266)"/><path d="M 130 274v 16h 16v -8a 8 8, 0, 0, 0, -8 -8" transform="rotate(90,138,282)"/><path d="M 130 322v 16h 8a 8 8, 0, 0, 0, 0 -16" transform="rotate(-90,138,330)"/><rect x="130" y="338" width="16" height="16" transform="rotate(0,138,346)"/><path d="M 146 34v 16h 8a 8 8, 0, 0, 0, 0 -16" transform="rotate(180,154,42)"/><path d="M 146 66v 16h 8a 8 8, 0, 0, 0, 0 -16" transform="rotate(-90,154,74)"/><rect x="146" y="82" width="16" height="16" transform="rotate(0,154,90)"/><rect x="146" y="98" width="16" height="16" transform="rotate(0,154,106)"/><path d="M 146 114v 16h 8a 8 8, 0, 0, 0, 0 -16" transform="rotate(90,154,122)"/><path d="M 146 146v 16h 16v -8a 8 8, 0, 0, 0, -8 -8" transform="rotate(0,154,154)"/><path d="M 146 162v 16h 16v -8a 8 8, 0, 0, 0, -8 -8" transform="rotate(180,154,170)"/><path d="M 146 242v 16h 16v -8a 8 8, 0, 0, 0, -8 -8" transform="rotate(-90,154,250)"/><rect x="146" y="258" width="16" height="16" transform="rotate(0,154,266)"/><circle cx="154" cy="314" r="8" transform="rotate(0,154,314)"/><rect x="146" y="338" width="16" height="16" transform="rotate(0,154,346)"/><rect x="146" y="354" width="16" height="16" transform="rotate(0,154,362)"/><path d="M 146 370v 16h 16v -8a 8 8, 0, 0, 0, -8 -8" transform="rotate(180,154,378)"/><path d="M 146 402v 16h 16v -8a 8 8, 0, 0, 0, -8 -8" transform="rotate(-90,154,410)"/><path d="M 146 418v 16h 16v -8a 8 8, 0, 0, 0, -8 -8" transform="rotate(180,154,426)"/><path d="M 146 450v 16h 8a 8 8, 0, 0, 0, 0 -16" transform="rotate(180,154,458)"/><path d="M 162 18v 16h 16v -8a 8 8, 0, 0, 0, -8 -8" transform="rotate(-90,170,26)"/><rect x="162" y="34" width="16" height="16" transform="rotate(0,170,42)"/><path d="M 162 50v 16h 16v -8a 8 8, 0, 0, 0, -8 -8" transform="rotate(180,170,58)"/><path d="M 162 82v 16h 8a 8 8, 0, 0, 0, 0 -16" transform="rotate(0,170,90)"/><rect x="162" y="162" width="16" height="16" transform="rotate(0,170,170)"/><path d="M 162 242v 16h 16v -8a 8 8, 0, 0, 0, -8 -8" transform="rotate(0,170,250)"/><rect x="162" y="258" width="16" height="16" transform="rotate(0,170,266)"/><path d="M 162 274v 16h 16v -8a 8 8, 0, 0, 0, -8 -8" transform="rotate(180,170,282)"/><path d="M 162 338v 16h 8a 8 8, 0, 0, 0, 0 -16" transform="rotate(0,170,346)"/><rect x="162" y="370" width="16" height="16" transform="rotate(0,170,378)"/><path d="M 162 402v 16h 16v -8a 8 8, 0, 0, 0, -8 -8" transform="rotate(0,170,410)"/><path d="M 162 418v 16h 16v -8a 8 8, 0, 0, 0, -8 -8" transform="rotate(90,170,426)"/><path d="M 162 450v 16h 8a 8 8, 0, 0, 0, 0 -16" transform="rotate(0,170,458)"/><path d="M 178 18v 16h 8a 8 8, 0, 0, 0, 0 -16" transform="rotate(0,186,26)"/><path d="M 178 50v 16h 8a 8 8, 0, 0, 0, 0 -16" transform="rotate(0,186,58)"/><path d="M 178 114v 16h 8a 8 8, 0, 0, 0, 0 -16" transform="rotate(-90,186,122)"/><path d="M 178 130v 16h 16v -8a 8 8, 0, 0, 0, -8 -8" transform="rotate(180,186,138)"/><rect x="178" y="162" width="16" height="16" transform="rotate(0,186,170)"/><circle cx="186" cy="202" r="8" transform="rotate(0,186,202)"/><circle cx="186" cy="234" r="8" transform="rotate(0,186,234)"/><rect x="178" y="274" width="16" height="16" transform="rotate(0,186,282)"/><path d="M 178 290v 16h 16v -8a 8 8, 0, 0, 0, -8 -8" transform="rotate(180,186,298)"/><path d="M 178 354v 16h 8a 8 8, 0, 0, 0, 0 -16" transform="rotate(-90,186,362)"/><path d="M 178 370v 16h 16v -8a 8 8, 0, 0, 0, -8 -8" transform="rotate(90,186,378)"/><path d="M 194 82v 16h 8a 8 8, 0, 0, 0, 0 -16" transform="rotate(180,202,90)"/><path d="M 194 130v 16h 16v -8a 8 8, 0, 0, 0, -8 -8" transform="rotate(0,202,138)"/><rect x="194" y="146" width="16" height="16" transform="rotate(0,202,154)"/><rect x="194" y="162" width="16" height="16" transform="rotate(0,202,170)"/><circle cx="202" cy="218" r="8" transform="rotate(0,202,218)"/><rect x="194" y="274" width="16" height="16" transform="rotate(0,202,282)"/><rect x="194" y="290" width="16" height="16" transform="rotate(0,202,298)"/><path d="M 194 306v 16h 16v -8a 8 8, 0, 0, 0, -8 -8" transform="rotate(180,202,314)"/><path d="M 194 418v 16h 8a 8 8, 0, 0, 0, 0 -16" transform="rotate(180,202,426)"/><circle cx="202" cy="474" r="8" transform="rotate(0,202,474)"/><path d="M 210 18v 16h 8a 8 8, 0, 0, 0, 0 -16" transform="rotate(-90,218,26)"/><rect x="210" y="34" width="16" height="16" transform="rotate(0,218,42)"/><rect x="210" y="50" width="16" height="16" transform="rotate(0,218,58)"/><rect x="210" y="66" width="16" height="16" transform="rotate(0,218,74)"/><rect x="210" y="82" width="16" height="16" transform="rotate(0,218,90)"/><rect x="210" y="98" width="16" height="16" transform="rotate(0,218,106)"/><path d="M 210 114v 16h 8a 8 8, 0, 0, 0, 0 -16" transform="rotate(90,218,122)"/><path d="M 210 162v 16h 8a 8 8, 0, 0, 0, 0 -16" transform="rotate(0,218,170)"/><path d="M 210 194v 16h 8a 8 8, 0, 0, 0, 0 -16" transform="rotate(180,218,202)"/><path d="M 210 226v 16h 8a 8 8, 0, 0, 0, 0 -16" transform="rotate(180,218,234)"/><path d="M 210 258v 16h 16v -8a 8 8, 0, 0, 0, -8 -8" transform="rotate(-90,218,266)"/><rect x="210" y="274" width="16" height="16" transform="rotate(0,218,282)"/><rect x="210" y="306" width="16" height="16" transform="rotate(0,218,314)"/><rect x="210" y="322" width="16" height="16" transform="rotate(0,218,330)"/><rect x="210" y="338" width="16" height="16" transform="rotate(0,218,346)"/><rect x="210" y="354" width="16" height="16" transform="rotate(0,218,362)"/><path d="M 210 370v 16h 16v -8a 8 8, 0, 0, 0, -8 -8" transform="rotate(180,218,378)"/><path d="M 210 418v 16h 8a 8 8, 0, 0, 0, 0 -16" transform="rotate(0,218,426)"/><circle cx="218" cy="458" r="8" transform="rotate(0,218,458)"/><path d="M 226 34v 16h 16v -8a 8 8, 0, 0, 0, -8 -8" transform="rotate(0,234,42)"/><path d="M 226 50v 16h 16v -8a 8 8, 0, 0, 0, -8 -8" transform="rotate(90,234,58)"/><path d="M 226 130v 16h 8a 8 8, 0, 0, 0, 0 -16" transform="rotate(-90,234,138)"/><path d="M 226 146v 16h 16v -8a 8 8, 0, 0, 0, -8 -8" transform="rotate(180,234,154)"/><path d="M 226 194v 16h 16v -8a 8 8, 0, 0, 0, -8 -8" transform="rotate(0,234,202)"/><rect x="226" y="210" width="16" height="16" transform="rotate(0,234,218)"/><rect x="226" y="226" width="16" height="16" transform="rotate(0,234,234)"/><rect x="226" y="242" width="16" height="16" transform="rotate(0,234,250)"/><rect x="226" y="258" width="16" height="16" transform="rotate(0,234,266)"/><rect x="226" y="274" width="16" height="16" transform="rotate(0,234,282)"/><rect x="226" y="290" width="16" height="16" transform="rotate(0,234,298)"/><path d="M 226 306v 16h 16v -8a 8 8, 0, 0, 0, -8 -8" transform="rotate(90,234,314)"/><path d="M 226 370v 16h 8a 8 8, 0, 0, 0, 0 -16" transform="rotate(0,234,378)"/><circle cx="234" cy="410" r="8" transform="rotate(0,234,410)"/><circle cx="234" cy="442" r="8" transform="rotate(0,234,442)"/><path d="M 226 466v 16h 8a 8 8, 0, 0, 0, 0 -16" transform="rotate(180,234,474)"/><path d="M 242 18v 16h 8a 8 8, 0, 0, 0, 0 -16" transform="rotate(180,250,26)"/><circle cx="250" cy="74" r="8" transform="rotate(0,250,74)"/><path d="M 242 98v 16h 8a 8 8, 0, 0, 0, 0 -16" transform="rotate(-90,250,106)"/><path d="M 242 114v 16h 8a 8 8, 0, 0, 0, 0 -16" transform="rotate(90,250,122)"/><rect x="242" y="146" width="16" height="16" transform="rotate(0,250,154)"/><rect x="242" y="226" width="16" height="16" transform="rotate(0,250,234)"/><rect x="242" y="274" width="16" height="16" transform="rotate(0,250,282)"/><rect x="242" y="290" width="16" height="16" transform="rotate(0,250,298)"/><circle cx="250" cy="330" r="8" transform="rotate(0,250,330)"/><circle cx="250" cy="394" r="8" transform="rotate(0,250,394)"/><path d="M 242 418v 16h 8a 8 8, 0, 0, 0, 0 -16" transform="rotate(180,250,426)"/><path d="M 242 450v 16h 8a 8 8, 0, 0, 0, 0 -16" transform="rotate(-90,250,458)"/><rect x="242" y="466" width="16" height="16" transform="rotate(0,250,474)"/><path d="M 258 18v 16h 16v -8a 8 8, 0, 0, 0, -8 -8" transform="rotate(0,266,26)"/><path d="M 258 34v 16h 16v -8a 8 8, 0, 0, 0, -8 -8" transform="rotate(180,266,42)"/><path d="M 258 130v 16h 8a 8 8, 0, 0, 0, 0 -16" transform="rotate(-90,266,138)"/><rect x="258" y="146" width="16" height="16" transform="rotate(0,266,154)"/><rect x="258" y="162" width="16" height="16" transform="rotate(0,266,170)"/><path d="M 258 178v 16h 8a 8 8, 0, 0, 0, 0 -16" transform="rotate(90,266,186)"/><path d="M 258 226v 16h 16v -8a 8 8, 0, 0, 0, -8 -8" transform="rotate(0,266,234)"/><rect x="258" y="242" width="16" height="16" transform="rotate(0,266,250)"/><rect x="258" y="258" width="16" height="16" transform="rotate(0,266,266)"/><rect x="258" y="274" width="16" height="16" transform="rotate(0,266,282)"/><rect x="258" y="290" width="16" height="16" transform="rotate(0,266,298)"/><path d="M 258 306v 16h 8a 8 8, 0, 0, 0, 0 -16" transform="rotate(90,266,314)"/><path d="M 258 402v 16h 8a 8 8, 0, 0, 0, 0 -16" transform="rotate(-90,266,410)"/><rect x="258" y="418" width="16" height="16" transform="rotate(0,266,426)"/><path d="M 258 434v 16h 8a 8 8, 0, 0, 0, 0 -16" transform="rotate(90,266,442)"/><path d="M 258 466v 16h 8a 8 8, 0, 0, 0, 0 -16" transform="rotate(0,266,474)"/><path d="M 274 34v 16h 16v -8a 8 8, 0, 0, 0, -8 -8" transform="rotate(0,282,42)"/><path d="M 274 50v 16h 8a 8 8, 0, 0, 0, 0 -16" transform="rotate(90,282,58)"/><path d="M 274 82v 16h 16v -8a 8 8, 0, 0, 0, -8 -8" transform="rotate(-90,282,90)"/><rect x="274" y="98" width="16" height="16" transform="rotate(0,282,106)"/><path d="M 274 114v 16h 8a 8 8, 0, 0, 0, 0 -16" transform="rotate(90,282,122)"/><path d="M 274 162v 16h 8a 8 8, 0, 0, 0, 0 -16" transform="rotate(0,282,170)"/><circle cx="282" cy="202" r="8" transform="rotate(0,282,202)"/><path d="M 274 242v 16h 16v -8a 8 8, 0, 0, 0, -8 -8" transform="rotate(0,282,250)"/><rect x="274" y="258" width="16" height="16" transform="rotate(0,282,266)"/><rect x="274" y="274" width="16" height="16" transform="rotate(0,282,282)"/><path d="M 274 290v 16h 16v -8a 8 8, 0, 0, 0, -8 -8" transform="rotate(90,282,298)"/><path d="M 274 322v 16h 8a 8 8, 0, 0, 0, 0 -16" transform="rotate(-90,282,330)"/><path d="M 274 338v 16h 16v -8a 8 8, 0, 0, 0, -8 -8" transform="rotate(180,282,346)"/><path d="M 274 370v 16h 16v -8a 8 8, 0, 0, 0, -8 -8" transform="rotate(-90,282,378)"/><path d="M 274 386v 16h 16v -8a 8 8, 0, 0, 0, -8 -8" transform="rotate(180,282,394)"/><path d="M 274 418v 16h 8a 8 8, 0, 0, 0, 0 -16" transform="rotate(0,282,426)"/><path d="M 290 18v 16h 8a 8 8, 0, 0, 0, 0 -16" transform="rotate(180,298,26)"/><path d="M 290 66v 16h 16v -8a 8 8, 0, 0, 0, -8 -8" transform="rotate(-90,298,74)"/><rect x="290" y="82" width="16" height="16" transform="rotate(0,298,90)"/><path d="M 290 210v 16h 8a 8 8, 0, 0, 0, 0 -16" transform="rotate(180,298,218)"/><path d="M 290 274v 16h 8a 8 8, 0, 0, 0, 0 -16" transform="rotate(0,298,282)"/><circle cx="298" cy="314" r="8" transform="rotate(0,298,314)"/><rect x="290" y="338" width="16" height="16" transform="rotate(0,298,346)"/><path d="M 290 370v 16h 16v -8a 8 8, 0, 0, 0, -8 -8" transform="rotate(0,298,378)"/><rect x="290" y="386" width="16" height="16" transform="rotate(0,298,394)"/><path d="M 290 402v 16h 16v -8a 8 8, 0, 0, 0, -8 -8" transform="rotate(180,298,410)"/><rect x="306" y="18" width="16" height="16" transform="rotate(0,314,26)"/><path d="M 306 34v 16h 16v -8a 8 8, 0, 0, 0, -8 -8" transform="rotate(180,314,42)"/><path d="M 306 66v 16h 16v -8a 8 8, 0, 0, 0, -8 -8" transform="rotate(0,314,74)"/><rect x="306" y="82" width="16" height="16" transform="rotate(0,314,90)"/><rect x="306" y="98" width="16" height="16" transform="rotate(0,314,106)"/><rect x="306" y="114" width="16" height="16" transform="rotate(0,314,122)"/><rect x="306" y="130" width="16" height="16" transform="rotate(0,314,138)"/><path d="M 306 146v 16h 8a 8 8, 0, 0, 0, 0 -16" transform="rotate(90,314,154)"/><path d="M 306 194v 16h 16v -8a 8 8, 0, 0, 0, -8 -8" transform="rotate(-90,314,202)"/><rect x="306" y="210" width="16" height="16" transform="rotate(0,314,218)"/><rect x="306" y="226" width="16" height="16" transform="rotate(0,314,234)"/><rect x="306" y="242" width="16" height="16" transform="rotate(0,314,250)"/><path d="M 306 258v 16h 8a 8 8, 0, 0, 0, 0 -16" transform="rotate(90,314,266)"/><path d="M 306 338v 16h 8a 8 8, 0, 0, 0, 0 -16" transform="rotate(0,314,346)"/><path d="M 306 402v 16h 8a 8 8, 0, 0, 0, 0 -16" transform="rotate(0,314,410)"/><path d="M 306 466v 16h 8a 8 8, 0, 0, 0, 0 -16" transform="rotate(180,314,474)"/><rect x="322" y="18" width="16" height="16" transform="rotate(0,330,26)"/><rect x="322" y="34" width="16" height="16" transform="rotate(0,330,42)"/><path d="M 322 178v 16h 16v -8a 8 8, 0, 0, 0, -8 -8" transform="rotate(-90,330,186)"/><rect x="322" y="194" width="16" height="16" transform="rotate(0,330,202)"/><rect x="322" y="210" width="16" height="16" transform="rotate(0,330,218)"/><path d="M 322 242v 16h 8a 8 8, 0, 0, 0, 0 -16" transform="rotate(0,330,250)"/><path d="M 322 306v 16h 8a 8 8, 0, 0, 0, 0 -16" transform="rotate(180,330,314)"/><path d="M 322 354v 16h 16v -8a 8 8, 0, 0, 0, -8 -8" transform="rotate(-90,330,362)"/><rect x="322" y="370" width="16" height="16" transform="rotate(0,330,378)"/><path d="M 322 386v 16h 16v -8a 8 8, 0, 0, 0, -8 -8" transform="rotate(180,330,394)"/><path d="M 322 434v 16h 8a 8 8, 0, 0, 0, 0 -16" transform="rotate(180,330,442)"/><rect x="322" y="466" width="16" height="16" transform="rotate(0,330,474)"/><path d="M 338 18v 16h 16v -8a 8 8, 0, 0, 0, -8 -8" transform="rotate(0,346,26)"/><rect x="338" y="34" width="16" height="16" transform="rotate(0,346,42)"/><rect x="338" y="50" width="16" height="16" transform="rotate(0,346,58)"/><path d="M 338 66v 16h 8a 8 8, 0, 0, 0, 0 -16" transform="rotate(90,346,74)"/><path d="M 338 98v 16h 8a 8 8, 0, 0, 0, 0 -16" transform="rotate(-90,346,106)"/><rect x="338" y="114" width="16" height="16" transform="rotate(0,346,122)"/><path d="M 338 130v 16h 8a 8 8, 0, 0, 0, 0 -16" transform="rotate(90,346,138)"/><rect x="338" y="178" width="16" height="16" transform="rotate(0,346,186)"/><rect x="338" y="210" width="16" height="16" transform="rotate(0,346,218)"/><path d="M 338 226v 16h 8a 8 8, 0, 0, 0, 0 -16" transform="rotate(90,346,234)"/><path d="M 338 258v 16h 8a 8 8, 0, 0, 0, 0 -16" transform="rotate(180,346,266)"/><path d="M 338 290v 16h 8a 8 8, 0, 0, 0, 0 -16" transform="rotate(-90,346,298)"/><path d="M 338 306v 16h 16v -8a 8 8, 0, 0, 0, -8 -8" transform="rotate(90,346,314)"/><path d="M 338 338v 16h 16v -8a 8 8, 0, 0, 0, -8 -8" transform="rotate(-90,346,346)"/><rect x="338" y="354" width="16" height="16" transform="rotate(0,346,362)"/><rect x="338" y="370" width="16" height="16" transform="rotate(0,346,378)"/><rect x="338" y="386" width="16" height="16" transform="rotate(0,346,394)"/><rect x="338" y="402" width="16" height="16" transform="rotate(0,346,410)"/><rect x="338" y="418" width="16" height="16" transform="rotate(0,346,426)"/><rect x="338" y="434" width="16" height="16" transform="rotate(0,346,442)"/><path d="M 338 466v 16h 8a 8 8, 0, 0, 0, 0 -16" transform="rotate(0,346,474)"/><path d="M 354 146v 16h 8a 8 8, 0, 0, 0, 0 -16" transform="rotate(-90,362,154)"/><rect x="354" y="162" width="16" height="16" transform="rotate(0,362,170)"/><path d="M 354 178v 16h 16v -8a 8 8, 0, 0, 0, -8 -8" transform="rotate(90,362,186)"/><rect x="354" y="210" width="16" height="16" transform="rotate(0,362,218)"/><path d="M 354 242v 16h 8a 8 8, 0, 0, 0, 0 -16" transform="rotate(-90,362,250)"/><rect x="354" y="258" width="16" height="16" transform="rotate(0,362,266)"/><path d="M 354 274v 16h 16v -8a 8 8, 0, 0, 0, -8 -8" transform="rotate(180,362,282)"/><rect x="354" y="338" width="16" height="16" transform="rotate(0,362,346)"/><rect x="354" y="402" width="16" height="16" transform="rotate(0,362,410)"/><rect x="354" y="418" width="16" height="16" transform="rotate(0,362,426)"/><rect x="354" y="434" width="16" height="16" transform="rotate(0,362,442)"/><path d="M 370 194v 16h 8a 8 8, 0, 0, 0, 0 -16" transform="rotate(-90,378,202)"/><rect x="370" y="210" width="16" height="16" transform="rotate(0,378,218)"/><path d="M 370 226v 16h 16v -8a 8 8, 0, 0, 0, -8 -8" transform="rotate(180,378,234)"/><path d="M 370 258v 16h 16v -8a 8 8, 0, 0, 0, -8 -8" transform="rotate(0,378,266)"/><rect x="370" y="274" width="16" height="16" transform="rotate(0,378,282)"/><rect x="370" y="290" width="16" height="16" transform="rotate(0,378,298)"/><rect x="370" y="306" width="16" height="16" transform="rotate(0,378,314)"/><rect x="370" y="322" width="16" height="16" transform="rotate(0,378,330)"/><rect x="370" y="338" width="16" height="16" transform="rotate(0,378,346)"/><circle cx="378" cy="378" r="8" transform="rotate(0,378,378)"/><rect x="370" y="402" width="16" height="16" transform="rotate(0,378,410)"/><path d="M 370 434v 16h 8a 8 8, 0, 0, 0, 0 -16" transform="rotate(0,378,442)"/><path d="M 386 146v 16h 16v -8a 8 8, 0, 0, 0, -8 -8" transform="rotate(-90,394,154)"/><path d="M 386 162v 16h 16v -8a 8 8, 0, 0, 0, -8 -8" transform="rotate(180,394,170)"/><path d="M 386 226v 16h 16v -8a 8 8, 0, 0, 0, -8 -8" transform="rotate(0,394,234)"/><path d="M 386 242v 16h 8a 8 8, 0, 0, 0, 0 -16" transform="rotate(90,394,250)"/><rect x="386" y="274" width="16" height="16" transform="rotate(0,394,282)"/><rect x="386" y="290" width="16" height="16" transform="rotate(0,394,298)"/><rect x="386" y="322" width="16" height="16" transform="rotate(0,394,330)"/><rect x="386" y="338" width="16" height="16" transform="rotate(0,394,346)"/><rect x="386" y="402" width="16" height="16" transform="rotate(0,394,410)"/><path d="M 386 418v 16h 8a 8 8, 0, 0, 0, 0 -16" transform="rotate(90,394,426)"/><path d="M 386 450v 16h 16v -8a 8 8, 0, 0, 0, -8 -8" transform="rotate(-90,394,458)"/><path d="M 386 466v 16h 16v -8a 8 8, 0, 0, 0, -8 -8" transform="rotate(180,394,474)"/><rect x="402" y="146" width="16" height="16" transform="rotate(0,410,154)"/><rect x="402" y="162" width="16" height="16" transform="rotate(0,410,170)"/><rect x="402" y="178" width="16" height="16" transform="rotate(0,410,186)"/><path d="M 402 194v 16h 16v -8a 8 8, 0, 0, 0, -8 -8" transform="rotate(180,410,202)"/><path d="M 402 258v 16h 8a 8 8, 0, 0, 0, 0 -16" transform="rotate(-90,410,266)"/><rect x="402" y="274" width="16" height="16" transform="rotate(0,410,282)"/><rect x="402" y="290" width="16" height="16" transform="rotate(0,410,298)"/><rect x="402" y="306" width="16" height="16" transform="rotate(0,410,314)"/><rect x="402" y="322" width="16" height="16" transform="rotate(0,410,330)"/><rect x="402" y="338" width="16" height="16" transform="rotate(0,410,346)"/><rect x="402" y="354" width="16" height="16" transform="rotate(0,410,362)"/><rect x="402" y="370" width="16" height="16" transform="rotate(0,410,378)"/><rect x="402" y="386" width="16" height="16" transform="rotate(0,410,394)"/><path d="M 402 402v 16h 16v -8a 8 8, 0, 0, 0, -8 -8" transform="rotate(90,410,410)"/><rect x="402" y="450" width="16" height="16" transform="rotate(0,410,458)"/><path d="M 402 466v 16h 16v -8a 8 8, 0, 0, 0, -8 -8" transform="rotate(90,410,474)"/><path d="M 418 146v 16h 16v -8a 8 8, 0, 0, 0, -8 -8" transform="rotate(0,426,154)"/><path d="M 418 162v 16h 16v -8a 8 8, 0, 0, 0, -8 -8" transform="rotate(90,426,170)"/><rect x="418" y="194" width="16" height="16" transform="rotate(0,426,202)"/><path d="M 418 210v 16h 8a 8 8, 0, 0, 0, 0 -16" transform="rotate(90,426,218)"/><circle cx="426" cy="250" r="8" transform="rotate(0,426,250)"/><rect x="418" y="274" width="16" height="16" transform="rotate(0,426,282)"/><rect x="418" y="386" width="16" height="16" transform="rotate(0,426,394)"/><rect x="418" y="450" width="16" height="16" transform="rotate(0,426,458)"/><rect x="434" y="194" width="16" height="16" transform="rotate(0,442,202)"/><path d="M 434 274v 16h 16v -8a 8 8, 0, 0, 0, -8 -8" transform="rotate(0,442,282)"/><rect x="434" y="290" width="16" height="16" transform="rotate(0,442,298)"/><path d="M 434 306v 16h 8a 8 8, 0, 0, 0, 0 -16" transform="rotate(90,442,314)"/><path d="M 434 338v 16h 16v -8a 8 8, 0, 0, 0, -8 -8" transform="rotate(-90,442,346)"/><path d="M 434 354v 16h 8a 8 8, 0, 0, 0, 0 -16" transform="rotate(90,442,362)"/><path d="M 434 386v 16h 16v -8a 8 8, 0, 0, 0, -8 -8" transform="rotate(0,442,394)"/><path d="M 434 402v 16h 16v -8a 8 8, 0, 0, 0, -8 -8" transform="rotate(180,442,410)"/><path d="M 434 434v 16h 16v -8a 8 8, 0, 0, 0, -8 -8" transform="rotate(-90,442,442)"/><rect x="434" y="450" width="16" height="16" transform="rotate(0,442,458)"/><path d="M 434 466v 16h 16v -8a 8 8, 0, 0, 0, -8 -8" transform="rotate(180,442,474)"/><path d="M 450 146v 16h 8a 8 8, 0, 0, 0, 0 -16" transform="rotate(-90,458,154)"/><rect x="450" y="162" width="16" height="16" transform="rotate(0,458,170)"/><rect x="450" y="178" width="16" height="16" transform="rotate(0,458,186)"/><rect x="450" y="194" width="16" height="16" transform="rotate(0,458,202)"/><path d="M 450 226v 16h 8a 8 8, 0, 0, 0, 0 -16" transform="rotate(180,458,234)"/><circle cx="458" cy="266" r="8" transform="rotate(0,458,266)"/><path d="M 450 322v 16h 8a 8 8, 0, 0, 0, 0 -16" transform="rotate(-90,458,330)"/><rect x="450" y="338" width="16" height="16" transform="rotate(0,458,346)"/><circle cx="458" cy="378" r="8" transform="rotate(0,458,378)"/><rect x="450" y="402" width="16" height="16" transform="rotate(0,458,410)"/><rect x="450" y="418" width="16" height="16" transform="rotate(0,458,426)"/><path d="M 450 434v 16h 16v -8a 8 8, 0, 0, 0, -8 -8" transform="rotate(90,458,442)"/><path d="M 450 466v 16h 8a 8 8, 0, 0, 0, 0 -16" transform="rotate(0,458,474)"/><path d="M 466 178v 16h 16v -8a 8 8, 0, 0, 0, -8 -8" transform="rotate(0,474,186)"/><rect x="466" y="194" width="16" height="16" transform="rotate(0,474,202)"/><rect x="466" y="210" width="16" height="16" transform="rotate(0,474,218)"/><path d="M 466 226v 16h 16v -8a 8 8, 0, 0, 0, -8 -8" transform="rotate(90,474,234)"/><path d="M 466 338v 16h 8a 8 8, 0, 0, 0, 0 -16" transform="rotate(0,474,346)"/><path d="M 466 386v 16h 8a 8 8, 0, 0, 0, 0 -16" transform="rotate(-90,474,394)"/><path d="M 466 402v 16h 16v -8a 8 8, 0, 0, 0, -8 -8" transform="rotate(90,474,410)"/></clipPath><clipPath id="clip-path-corners-square-color-0-0"><path clip-rule="evenodd" d="M 18 58v 32a 40 40, 0, 0, 0, 40 40h 32a 40 40, 0, 0, 0, 40 -40v -32a 40 40, 0, 0, 0, -40 -40h -32a 40 40, 0, 0, 0, -40 40M 58 34h 32a 24 24, 0, 0, 1, 24 24v 32a 24 24, 0, 0, 1, -24 24h -32a 24 24, 0, 0, 1, -24 -24v -32a 24 24, 0, 0, 1, 24 -24" transform="rotate(0,74,74)"/></clipPath><clipPath id="clip-path-corners-dot-color-0-0"><circle cx="74" cy="74" r="24" transform="rotate(0,74,74)"/></clipPath><clipPath id="clip-path-corners-square-color-1-0"><path clip-rule="evenodd" d="M 370 58v 32a 40 40, 0, 0, 0, 40 40h 32a 40 40, 0, 0, 0, 40 -40v -32a 40 40, 0, 0, 0, -40 -40h -32a 40 40, 0, 0, 0, -40 40M 410 34h 32a 24 24, 0, 0, 1, 24 24v 32a 24 24, 0, 0, 1, -24 24h -32a 24 24, 0, 0, 1, -24 -24v -32a 24 24, 0, 0, 1, 24 -24" transform="rotate(90,426,74)"/></clipPath><clipPath id="clip-path-corners-dot-color-1-0"><circle cx="426" cy="74" r="24" transform="rotate(90,426,74)"/></clipPath><clipPath id="clip-path-corners-square-color-0-1"><path clip-rule="evenodd" d="M 18 410v 32a 40 40, 0, 0, 0, 40 40h 32a 40 40, 0, 0, 0, 40 -40v -32a 40 40, 0, 0, 0, -40 -40h -32a 40 40, 0, 0, 0, -40 40M 58 386h 32a 24 24, 0, 0, 1, 24 24v 32a 24 24, 0, 0, 1, -24 24h -32a 24 24, 0, 0, 1, -24 -24v -32a 24 24, 0, 0, 1, 24 -24" transform="rotate(-90,74,426)"/></clipPath><clipPath id="clip-path-corners-dot-color-0-1"><circle cx="74" cy="426" r="24" transform="rotate(-90,74,426)"/></clipPath></defs><rect x="0" y="0" height="500" width="500" clip-path="url('#clip-path-background-color')" fill="#fff"/><rect x="0" y="0" height="500" width="500" clip-path="url('#clip-path-dot-color')" fill="#000000"/><rect x="18" y="18" height="112" width="112" clip-path="url('#clip-path-corners-square-color-0-0')" fill="#000000"/><rect x="50" y="50" height="48" width="48" clip-path="url('#clip-path-corners-dot-color-0-0')" fill="#000000"/><rect x="370" y="18" height="112" width="112" clip-path="url('#clip-path-corners-square-color-1-0')" fill="#000000"/><rect x="402" y="50" height="48" width="48" clip-path="url('#clip-path-corners-dot-color-1-0')" fill="#000000"/><rect x="18" y="370" height="112" width="112" clip-path="url('#clip-path-corners-square-color-0-1')" fill="#000000"/><rect x="50" y="402" height="48" width="48" clip-path="url('#clip-path-corners-dot-color-0-1')" fill="#000000"/></svg>